<svg version="1.1"
	baseProfile="full"
	width="450" height="870"
	xmlns="http://www.w3.org/2000/svg">
	<!--Linea de alimentación-->
	<path d="m 50 50 l 400 0 m -400 50 l 400 0 m -400 50 l 400 0" stroke="black" stroke-width="1" fill="none"/>;
	<text x="50" y="50" style="text-anchor:end" font-family='sans-serif' dominant-baseline = 'middle' font-size = '18px'>L1</text>;
	<text x="50" y="100" style="text-anchor:end" font-family='sans-serif' dominant-baseline = 'middle' font-size = '18px'>L2</text>;
	<text x="50" y="150" style="text-anchor:end" font-family='sans-serif' dominant-baseline = 'middle' font-size = '18px'>L3</text>;
	<circle cx="250" cy="50" r="5" stroke="none" fill="black"/>;
	<circle cx="300" cy="100" r="5" stroke="none" fill="black"/>;
	<circle cx="350" cy="150" r="5" stroke="none" fill="black"/>;
	<path d="m 250 50 l 0 150 m 0 50 l 0 50 m 0 100 l 0 50 m 0 200 l 0 100" stroke="black" stroke-width="1" fill="none"/>;
	<path d="m 300 100 l 0 100 m 0 50 l 0 50 m 0 100 l 0 50 m 0 200 l 0 100" stroke="black" stroke-width="1" fill="none"/>;
	<path d="m 350 150 l 0 50 m 0 50 l 0 50 m 0 100 l 0 50 m 0 200 l 0 100" stroke="black" stroke-width="1" fill="none"/>;
	<!--Magnetotérmico-->
	<!--Contactores-->
	<g id="F1FR">
		<path d="M250 250 l 0 -60" stroke="black" stroke-width="1" fill="none" transform="rotate(-15 250 250)" id="ContactorKM1R"/>;
	</g>
	<use href = "#F1FR" x="50" y="0"/>;
	<use href = "#F1FR" x="100" y="0"/>;
	<!--Desfase horizontal de la linea de puntos = 350 - 25 * tan ( 15*pi()/180 ) -->
	<path stroke = 'black' stroke-width = '1' fill = 'none' stroke-dasharray='10 5' d = 'M 343.301 225 l -243.3 0' id="linea1"/>;
	<path d="m 225 300 l 150 0 l 0 100 l -150 0 l 0 -100 m 50 0 l 0 100 m 50 0 l 0 -100 m 50 50 l -150 0" stroke="black" stroke-width="1" fill="none"/>;
	<path d="m 250 300 l 0 12 l 12 0 l 0 26 l -12 0 l 0 12" stroke="black" stroke-width="1" fill="none"/>;
	<path d="m 300 300 l 0 12 l 12 0 l 0 26 l -12 0 l 0 12" stroke="black" stroke-width="1" fill="none"/>;
	<path d="m 350 300 l 0 12 l 12 0 l 0 26 l -12 0 l 0 12" stroke="black" stroke-width="1" fill="none"/>;
	<text x="250" y="375" style="text-anchor:middle" font-family='sans-serif' dominant-baseline = 'middle' font-size = '18px'>I></text>;
	<text x="300" y="375" style="text-anchor:middle" font-family='sans-serif' dominant-baseline = 'middle' font-size = '18px'>I></text>;
	<text x="350" y="375" style="text-anchor:middle" font-family='sans-serif' dominant-baseline = 'middle' font-size = '18px'>I></text>;
	<path d="m 125 200 l 50 0 l 0 50 l -50 0 Z" stroke="black" stroke-width="1" fill="none"/>;
	<path d="m 225 375 l -75 0 l 0 -175" stroke-dasharray='10 5' stroke="black" stroke-width="1" fill="none"/>;
	<path d="m 225 325 l -75 0" stroke-dasharray='10 5' stroke="black" stroke-width="1" fill="none"/>;
	<path d="m 100 205 l 0 40" stroke="black" stroke-width="1" fill="none"/>;
	<!--Arrancador Suave-->
	<path d="m 175 450 l 250 0 l 0 200 l -250 0 Z" stroke="black" stroke-width="1" fill="none"/>;
	<path d="m 300 475 l 0 150" stroke="black" stroke-width="1" fill="none"/>;
	<path d="m 200 550 l 200 0" stroke="black" stroke-width="1" fill="none"/>;
	<path d="m 250 500 l 100 0 l 0 100 l -100 0 Z" stroke="none" fill="white"/>;
	<path d="m 225 525 l 50 0" stroke="black" fill="none"/>;
	<path d="m 250 525 l 25 50 l -50 0 Z" stroke="black" stroke-width="1" fill="white"/>;
	<path d="m 325 575 l 50 0" stroke="black" fill="none"/>;
	<path d="m 350 575 l 25 -50 l -50 0 Z" stroke="black" stroke-width="1" fill="white"/>;
	<path d="m 250 500 l 100 0 l 0 100 l -100 0 Z" stroke="black" fill="none"/>;
	<!--Motor-->
	<g id="motor">
		<!--Motor Jaula de Ardilla-->
		<circle id="rotor" cx="300" cy="775" r="75" stroke="black" stroke-width="1" fill="white"/>;
		<!--Desfase vertical del texto y = 775 +/- 0.6 * 18  (1,2 em)-->
		<text x="300" y="764.2" style="text-anchor:middle" font-family="sans-serif" dominant-baseline = "middle" font-size = "18px">M</text>;
		<text x="300" y="785.8" style="text-anchor:middle" font-family="sans-serif" dominant-baseline = "middle" font-size = "18px">3&#126;</text>;
	</g>
</svg>