<svg version="1.1"
	baseProfile="full"
	width="1000" height="550"
	xmlns="http://www.w3.org/2000/svg">
	<!--Giro Derechas-->
	<g id="flecha">
		<path d="m280 155 l -10 -20 m 20 0 -10 20" stroke="orange" stroke-width="2" fill="none"/>
	</g>
	<use href = "#flecha" x="30" y="0"/>
	<use href = "#flecha" x="60" y="0"/>
	<use href = "#flecha" x="-140" y="0" transform="rotate (180 140 150)"/>
	<use href = "#flecha" x="-170" y="0" transform="rotate (180 110 150)"/>
	<use href = "#flecha" x="-200" y="0" transform="rotate (180 80 150)"/>
	<circle cx="210" cy="150" r="30" stroke="black" stroke-width="1" fill="lightgray"/>
	<circle cx="210" cy="150" r="11" stroke="black" stroke-width="1"/>
	<circle cx="210" cy="150" r="70" stroke="orange" stroke-width="2" fill="none"/>
	<circle cx="210" cy="150" r="100" stroke="orange" stroke-width="2" fill="none"/>
	<circle cx="210" cy="150" r="130" stroke="orange" stroke-width="2" fill="none"/>
	<!--Giro Izquierdas-->
	<use href = "#flecha" x="300" y="0"/>
	<use href = "#flecha" x="330" y="0"/>
	<use href = "#flecha" x="360" y="0"/>
	<use href = "#flecha" x="500" y="0" transform="rotate (180 780 150)"/>
	<use href = "#flecha" x="530" y="0" transform="rotate (180 810 150)"/>
	<use href = "#flecha" x="560" y="0" transform="rotate (180 840 150)"/>
	<circle cx="710" cy="150" r="30" stroke="black" stroke-width="1" fill="lightgray"/>
	<path d="m680 150 l 60 0" stroke="black" stroke-width="2" fill="none" transform="rotate (45 710 150)"/>
	<path d="m680 150 l 60 0" stroke="black" stroke-width="2" fill="none" transform="rotate (-45 710 150)"/>
	<circle cx="710" cy="150" r="70" stroke="orange" stroke-width="2" fill="none"/>
	<circle cx="710" cy="150" r="100" stroke="orange" stroke-width="2" fill="none"/>
	<circle cx="710" cy="150" r="130" stroke="orange" stroke-width="2" fill="none"/>
	<!--Conductor-->
	<path d="m50 400 l 825 0 a 30 50 0 0 1 0 100 l -825 0" stroke="black" stroke-width="2" fill="lightgray"/>
	<ellipse cx="50" cy="450" rx="30" ry="50" fill="lightgray" stroke="black" stroke-width="2"/>
	<g id="FlechaIntensidad">
		<path d="m790 450 l 25 -10 l 0 5 l 50 0 l 0 15 l -50 0 l 0 5 z" stroke="none" fill="black"/>
	</g>
	<use href = "#FlechaIntensidad" x="-100" y="0"/>
	<use href = "#FlechaIntensidad" x="-200" y="0"/>
	<use href = "#FlechaIntensidad" x="-300" y="0"/>
	<use href = "#FlechaIntensidad" x="-400" y="0"/>
	<use href = "#FlechaIntensidad" x="-500" y="0"/>
	<use href = "#FlechaIntensidad" x="-600" y="0"/>
	<use href = "#FlechaIntensidad" x="-700" y="0"/>
	<g id="LineasFuerza">
		<path d="m80 400 a 55 75 0 1 1 0 100" stroke="orange" stroke-width="2" fill="none"/>
		<path d="m120 525 l 20 -10 m 0 20 -20 -10" stroke="orange" stroke-width="2" fill="none" transform="rotate (-10 120 525)"/>
	</g>
	<use href = "#LineasFuerza" x="100" y="0"/>
	<use href = "#LineasFuerza" x="200" y="0"/>
	<use href = "#LineasFuerza" x="300" y="0"/>
	<use href = "#LineasFuerza" x="400" y="0"/>
	<use href = "#LineasFuerza" x="500" y="0"/>
	<use href = "#LineasFuerza" x="600" y="0"/>
	<use href = "#LineasFuerza" x="700" y="0"/>
</svg>




