<svg version="1.1"
	baseProfile="full"
	
	width="1000" height="500"
	
	preserveAspectRatio="xMinYMin meet"
	viewBox="0 0 {500} {500}"
	xmlns="http://www.w3.org/2000/svg">

	<!--Ranuras exteriores de refrigeración-->
	<rect id="Radiador" x="40" y="362.5" width="420" height="15" fill="ROYALBLUE" stroke="none"/>
	<use href = "#Radiador" x="0" y="-40" />
	<use href = "#Radiador" x="0" y="-80" />
	<use href = "#Radiador" x="0" y="-120" />
	<use href = "#Radiador" x="0" y="-160" />
	<use href = "#Radiador" x="0" y="-200" />
	<use href = "#Radiador" x="0" y="-240" />
	<path d="m20 250 a 230 230 0 1 0 460 0" stroke="white" stroke-width="40" fill="none"/>
	<path d="m20 250 a 230 230 0 0 1 460 0" stroke="white" stroke-width="40" fill="none"/>
	<!--Caja de Bornes-->
	<rect x="150" y="0" width="200" height="110" fill="ROYALBLUE" stroke="none"/>
	<!--Soporte del motor-->
	<path d="m100 455 l 0 -25 l 50 0 l 0 -70 l 25 0 l 0 95 z" stroke="ROYALBLUE" stroke-width="1" fill="ROYALBLUE"/>
	<path d="m400 455 l 0 -25 l -50 0 l 0 -70 l -25 0 l 0 95 z" stroke="ROYALBLUE" stroke-width="1" fill="ROYALBLUE"/>
	<!--Círculos del estátor-->
	<circle cx="250" cy="250" r="180" stroke="none" stroke-width="1" fill="ROYALBLUE"/>
	<circle cx="250" cy="250" r="160" stroke="none" stroke-width="1" fill="lightgray"/>
	<circle cx="250" cy="250" r="100" stroke="none" stroke-width="1" fill="white"/>
	<!--Ranuras-->	
	<path id="RanurasFR1" d="m375 250 a 125 125 0 0 0 -44.651 -95.755" stroke="gray" stroke-width="50" fill="none"
		transform="rotate (-65 250 250)">
		<animateColor
			id="ani01" attributeType="XML" attributeName="stroke"
			from="FIREBRICK" to="FIREBRICK"
			begin="0s;ani02.end" dur="1.5s" />
		<animateColor
			id="ani02" attributeType="XML" attributeName="stroke"
			from="STEELBLUE" to="STEELBLUE"
			begin="ani01.end" dur="1.5s" />
	</path>
	<path id="RanurasFR2" d="m375 250 a 125 125 0 0 0 -44.651 -95.755" stroke="gray" stroke-width="50" fill="none"
		transform="rotate (-245 250 250)">
		<animateColor
			id="ani11" attributeType="XML" attributeName="stroke"
			from="STEELBLUE" to="STEELBLUE"
			begin="0s;ani12.end" dur="1.5s" />
		<animateColor
			id="ani12" attributeType="XML" attributeName="stroke"
			from="FIREBRICK" to="FIREBRICK"
			begin="ani11.end" dur="1.5s" />
	</path>
	<path id="RanurasFS1" d="m375 250 a 125 125 0 0 0 -44.651 -95.755" stroke="gray" stroke-width="50" fill="none"
		transform="rotate (-305 250 250)">
		<animateColor
			id="ani21" attributeType="XML" attributeName="stroke"
			from="STEELBLUE" to="STEELBLUE"
			begin="0s;ani23.end" dur="1s" />
		<animateColor 
			id="ani22" attributeType="XML" attributeName="stroke"
			from="FIREBRICK" to="FIREBRICK" 
			begin="ani21.end" dur="1.5s" />
		<animateColor 
			id="ani23" attributeType="XML" attributeName="stroke"
			from="STEELBLUE" to="STEELBLUE" 
			begin="ani22.end" dur="0.5s" />
	</path>
	<path id="RanurasFS2" d="m375 250 a 125 125 0 0 0 -44.651 -95.755" stroke="gray" stroke-width="50" fill="none"
		transform="rotate (-125 250 250)">
		<animateColor
			id="ani31" attributeType="XML" attributeName="stroke"
			from="FIREBRICK" to="FIREBRICK"
			begin="0s;ani33.end" dur="1s" />
		<animateColor id="ani32" attributeType="XML" attributeName="stroke"
			from="STEELBLUE" to="STEELBLUE" 
			begin="ani31.end" dur="1.5s" />
		<animateColor
			id="ani33" attributeType="XML" attributeName="stroke"
			from="FIREBRICK" to="FIREBRICK" 
			begin="ani32.end" dur="0.5s" />		
	</path>	
	<path id="RanurasFT1" d="m375 250 a 125 125 0 0 0 -44.651 -95.755" stroke="gray" stroke-width="50" fill="none"
		transform="rotate (-185 250 250)">
			<animateColor
				id="ani41" attributeType="XML" attributeName="stroke"
				from="FIREBRICK" to="FIREBRICK"
				begin="0s;ani43.end" dur="0.5s" />
			<animateColor id="ani42" attributeType="XML" attributeName="stroke"
				from="STEELBLUE" to="STEELBLUE" 
				begin="ani41.end" dur="1.5s" />
			<animateColor
				id="ani43" attributeType="XML" attributeName="stroke"
				from="FIREBRICK" to="FIREBRICK" 
				begin="ani42.end" dur="1s" />
	</path>
	<path id="RanurasFT2" d="m375 250 a 125 125 0 0 0 -44.651 -95.755" stroke="gray" stroke-width="50" fill="none"
		transform="rotate (-5 250 250)">
		<animateColor
			id="ani41" attributeType="XML" attributeName="stroke"
			from="STEELBLUE" to="STEELBLUE"
			begin="0s;ani43.end" dur="0.5s" />
		<animateColor id="ani42" attributeType="XML" attributeName="stroke"
			from="FIREBRICK" to="FIREBRICK" 
			begin="ani41.end" dur="1.5s" />
		<animateColor
			id="ani43" attributeType="XML" attributeName="stroke"
			from="STEELBLUE" to="STEELBLUE" 
			begin="ani42.end" dur="1s" />
	</path>
	<!--Fase R Principio-->
	<circle cx="250" cy="125" r="20" stroke="black" stroke-width="1" fill="none" transform = "rotate (12 250 250)"/>
	<circle cx="250" cy="125" r="20" stroke="black" stroke-width="1" fill="none" transform = "rotate (-12 250 250)"/>
	<!--Fase S Principio-->
	<circle cx="250" cy="125" r="20" stroke="black" stroke-width="1" fill="none" transform = "rotate (48 250 250)"/>
	<circle cx="250" cy="125" r="20" stroke="black" stroke-width="1" fill="none" transform = "rotate (72 250 250)"/>
	<!--Fase T Principio-->
	<circle cx="250" cy="125" r="20" stroke="black" stroke-width="1" fill="none" transform = "rotate (108 250 250)"/>
	<circle cx="250" cy="125" r="20" stroke="black" stroke-width="1" fill="none" transform = "rotate (132 250 250)"/>
	<!--Fase R Final-->
	<circle cx="250" cy="125" r="20" stroke="black" stroke-width="1" fill="none" transform = "rotate (168 250 250)"/>
	<circle cx="250" cy="125" r="20" stroke="black" stroke-width="1" fill="none" transform = "rotate (190 250 250)"/>
	<!--Fase S Final-->
	<circle cx="250" cy="125" r="20" stroke="black" stroke-width="1" fill="none" transform = "rotate (228 250 250)"/>
	<circle cx="250" cy="125" r="20" stroke="black" stroke-width="1" fill="none" transform = "rotate (252 250 250)"/>
	<!--Fase T Final-->
	<circle cx="250" cy="125" r="20" stroke="black" stroke-width="1" fill="none" transform = "rotate (288 250 250)"/>
	<circle cx="250" cy="125" r="20" stroke="black" stroke-width="1" fill="none" transform = "rotate (312 250 250)"/>
	<!--Ejes de coordenadas-->
	<path d="m490 227 h 510" fill="none" stroke="black" />
	<path d="m490 352 v -250" fill="none" stroke="black" />
	<!--Curvas Senoidales-->
	<path id="senodesfase0" d="
		m 490 227 l5 -7.85 l5 -7.82 l5 -7.75 l5 -7.67 l5 -7.54 l5 -7.39 l5 -7.2 l5 -7 l5 -6.76 l5 -6.49 l5 -6.21 l5 -5.8 l5 -5.55 
		l5 -5.19 l5 -4.82 l5 -4.41 l5 -4 l5 -3.56 l5 -3.12 l5 -2.66 l5 -2.19 l5 -1.72 l5 -1.22 l5 -0.74 l5 -0.25 l5 0.25 l5 0.74 l5 1.22
		l5 1.72 l5 2.19 l5 2.66 l5 3.12 l5 3.56 l5 4 l5 4.41 l5 4.82 l5 5.19 l5 5.55 l5 5.89 l5 6.21 l5 6.49 l5 6.76 l5 7
		l5 7.2 l5 7.39 l5 7.54 l5 7.67 l5 7.75 l5 7.82 l5 7.85 l5 7.85 l5 7.82 l5 7.75 l5 7.67 l5 7.54 l5 7.39 l5 7.2 l5 7 l5 6.76
		l5 6.49 l5 6.21 l5 5.89 l5 5.55 l5 5.19 l5 4.82 l5 4.41 l5 4 l5 3.56 l5 3.12 l5 2.66 l5 2.19 l5 1.72 l5 1.22 l5 0.74 l5 0.25
		l5 -0.25 l5 -0.74 l5 -1.22 l5 -1.72 l5 -2.19 l5 -2.66 l5 -3.12 l5 -3.56 l5 -4 l5 -4.41 l5 -4.82 l5 -5.19 l5 -5.55 l5 -5.89
		l5 -6.21 l5 -6.49 l5 -6.76 l5 -7 l5 -7.2 l5 -7.39 l5 -7.54 l5 -7.67 l5 -7.75 l5 -7.82 l5 -7.85"
		fill="none" stroke="red" />
	<path id="senodesfase120" d=" m490 118.75 l5 4.13 l5 4.55 l5 4.95 l5 5.31 l5 5.67 l5 6 l5 6.3 l5 6.59 l5 6.84 l5 7.07
		l5 7.27 l5 7.44 l5 7.59 l5 7.69 l5 7.78 l5 7.84 l5 7.85 l5 7.84 l5 7.8 l5 7.73 l5 7.62 l5 7.5 l5 7.33 l5 7.14 l5 6.92 l5 6.67
		l5 6.34 l5 6.11 l5 5.78 l5 5.43 l5 5.07 l5 4.68 l5 4.28 l5 3.86 l5 3.41 l5 2.97 l5 2.5 l5 2.04 l5 1.55 l5 1.07 l5 0.57 l5 0.08
		l5 -0.41 l5 -0.90 l5 -1.39 l5 -1.87 l5 -2.35 l5 -2.82 l5 -3.27 l5 -3.71 l5 -4.13 l5 -4.55 l5 -4.95 l5 -5.31 l5 -5.67 l5 -6
		l5 -6.3 l5 -6.59 l5 -6.84 l5 -7.07 l5 -7.27 l5 -7.44 l5 -7.59 l5 -7.69 l5 -7.78 l5 -7.84 l5 -7.85 l5 -7.84 l5 -7.8 l5 -7.73
		l5 -7.62 l5 -7.5 l5 -7.33 l5 -7.14 l5 -6.92 l5 -6.67 l5 -6.34 l5 -6.11 l5 -5.78 l5 -5.43 l5 -5.07 l5 -4.68 l5 -4.28 l5 -3.86
		l5 -3.41 l5 -2.97 l5 -2.5 l5 -2.04 l5 -1.55 l5 -1.07 l5 -0.57 l5 -0.08 l5 0.41 l5 0.90 l5 1.39 l5 1.87 l5 2.35 l5 2.82
		l5 3.27 l5 3.71"
		fill="none" stroke="blue" />
	<path id="senodesfase120neg" d="m490 335.25 l5 3.71 l5 3.27 l5 2.82 l5 2.35 l5 1.87 l5 1.39 l5 0.90 l5 0.41 l5 -0.08 l5 -0.57 l5 -1.07
		l5 -1.55 l5 -2.04 l5 -2.5 l5 -2.97 l5 -3.41 l5 -3.86 l5 -4.28 l5 -4.68 l5 -5.07 l5 -5.43 l5 -5.78 l5 -6.11 l5 -6.40 l5 -6.67
		l5 -6.92 l5 -7.14 l5 -7.33 l5 -7.5 l5 -7.62 l5 -7.73 l5 -7.8 l5 -7.84 l5 -7.85 l5 -7.84 l5 -7.78 l5 -7.69 l5 -7.59 l5 -7.44
		l5 -7.27 l5 -7.07 l5 -6.84 l5 -6.59 l5 -6.3 l5 -6 l5 -5.67 l5 -5.31 l5 -4.95 l5 -4.55 l5 -4.13 l5 -3.71 l5 -3.27 l5 -2.82
		l5 -2.35 l5 -1.87 l5 -1.39 l5 -0.90 l5 -0.41 l5 0.08 l5 0.57 l5 1.07 l5 1.55 l5 2.04 l5 2.5 l5 2.97 l5 3.41 l5 3.86 l5 4.28
		l5 4.68 l5 5.07 l5 5.43 l5 5.78 l5 6.11 l5 6.40 l5 6.67 l5 6.92 l5 7.14 l5 7.33 l5 7.5 l5 7.62 l5 7.73 l5 7.8 l5 7.84 l5 7.85 
		l5 7.84 l5 7.78 l5 7.69 l5 7.59 l5 7.44 l5 7.27 l5 7.07 l5 6.84 l5 6.59 l5 6.3 l5 6 l5 5.67 l5 5.31 l5 4.95 l5 4.55 l5 4.13"
		fill="none" stroke="green" />
	<!--Animación barra de desplazamiento-->
	<rect id="BarraDesplazamiento" x="490" y="102" width="1" height="250" fill="none" stroke="black" >
    <animate 
		attributeType="XML"
		attributeName="x"
		from="490"  
		to="990"
		dur="3s"
		repeatCount="indefinite"/>
	</rect>
	<!--Rotor-->
	<circle cx="250" cy="250" r="80" stroke="darkgray" stroke-width="4" fill="lightgray"/>
	<circle cx="250" cy="250" r="20" fill="gray"/>
	<rect x="240" y="250" width="20" height="40" fill="gray">
 	<animateTransform 
		attributeType="xml" 
		attributeName="transform"
		type="rotate" 
		from="0 250 250" 
		to="360 250 250"
		dur="3s"
		additive="sum"
		repeatCount="indefinite" />
	</rect>

	
	
		
</svg>





