<?xml version="1.0" encoding="UTF-8"?>
<svg viewBox="0 0 373.05551 441.27698" xmlns="http://www.w3.org/2000/svg">
 <g transform="translate(22.524 -23.417)">
  <g transform="matrix(.5997 0 0 .5997 14.317 -55.96)">
   <path d="m132.29 852.63c0 8.5955-26.711 15.564-59.66 15.564s-59.66-6.968-59.66-15.564 26.711-15.564 59.66-15.564 59.66 6.968 59.66 15.564z" fill="#808080"/>
   <path d="m63.633 132.36h24.163c2.0126 0 3.6328 1.6202 3.6328 3.6328v704.16c0 2.0126-1.6202 3.6328-3.6328 3.6328h-24.163c-2.0126 0-3.6328-1.6202-3.6328-3.6328v-704.16c0-2.0126 1.6202-3.6328 3.6328-3.6328z"/>
   <g transform="translate(-2)">
    <path d="m11.429 266.65h131.43v11.429h-131.43z"/>
    <path transform="matrix(.57127,-.82076,.97588,.21832,0,0)" d="m-258.95 287.41h84.447v10.894h-84.447z"/>
    <path transform="matrix(-.57127,-.82076,-.97588,.21832,0,0)" d="m-295.96 151.87h84.447v10.894h-84.447z"/>
    <path d="m-59.433 206.15h31.559v11.429h-31.559z"/>
    <path d="m180.92 206.15h27.001v11.429h-27.001z"/>
    <path transform="matrix(1.4091 0 0 1.3939 18.252 -80.175)" d="m-38.539 193.53c0 3.7762-2.0408 6.8375-4.5583 6.8375s-4.5583-3.0613-4.5583-6.8375 2.0408-6.8375 4.5583-6.8375 4.5583 3.0613 4.5583 6.8375z"/>
    <path transform="matrix(.90909 0 0 .48485 -3.5035 84.571)" d="m-38.539 193.53c0 3.7762-2.0408 6.8375-4.5583 6.8375s-4.5583-3.0613-4.5583-6.8375 2.0408-6.8375 4.5583-6.8375 4.5583 3.0613 4.5583 6.8375z"/>
    <path transform="rotate(-90)" d="m-227.23-44.395h31.559v4.7983h-31.559z"/>
    <path transform="matrix(1.4091 0 0 1.3939 256.94 -78.518)" d="m-38.539 193.53c0 3.7762-2.0408 6.8375-4.5583 6.8375s-4.5583-3.0613-4.5583-6.8375 2.0408-6.8375 4.5583-6.8375 4.5583 3.0613 4.5583 6.8375z"/>
    <path transform="matrix(.90909 0 0 .48485 235.19 86.229)" d="m-38.539 193.53c0 3.7762-2.0408 6.8375-4.5583 6.8375s-4.5583-3.0613-4.5583-6.8375 2.0408-6.8375 4.5583-6.8375 4.5583 3.0613 4.5583 6.8375z"/>
    <path transform="matrix(0 -1 1 0 238.69 1.6576)" d="m-227.23-44.395h31.559v4.7983h-31.559z"/>
   </g>
   <path transform="matrix(.75 0 0 .75 431.24 128.86)" d="m132.29 852.63c0 8.5955-26.711 15.564-59.66 15.564s-59.66-6.968-59.66-15.564 26.711-15.564 59.66-15.564 59.66 6.968 59.66 15.564z" fill="#808080"/>
   <g transform="matrix(.5784 0 0 .5784 441.54 276.18)">
    <path d="m63.633 132.36h24.163c2.0126 0 3.6328 1.6202 3.6328 3.6328v704.16c0 2.0126-1.6202 3.6328-3.6328 3.6328h-24.163c-2.0126 0-3.6328-1.6202-3.6328-3.6328v-704.16c0-2.0126 1.6202-3.6328 3.6328-3.6328z"/>
    <g transform="translate(-2)">
     <path d="m11.429 266.65h131.43v11.429h-131.43z"/>
     <path transform="matrix(.57127,-.82076,.97588,.21832,0,0)" d="m-258.95 287.41h84.447v10.894h-84.447z"/>
     <path transform="matrix(-.57127,-.82076,-.97588,.21832,0,0)" d="m-295.96 151.87h84.447v10.894h-84.447z"/>
     <path d="m-59.433 206.15h31.559v11.429h-31.559z"/>
     <path d="m180.92 206.15h27.001v11.429h-27.001z"/>
     <path transform="matrix(1.4091 0 0 1.3939 18.252 -80.175)" d="m-38.539 193.53c0 3.7762-2.0408 6.8375-4.5583 6.8375s-4.5583-3.0613-4.5583-6.8375 2.0408-6.8375 4.5583-6.8375 4.5583 3.0613 4.5583 6.8375z"/>
     <path transform="matrix(.90909 0 0 .48485 -3.5035 84.571)" d="m-38.539 193.53c0 3.7762-2.0408 6.8375-4.5583 6.8375s-4.5583-3.0613-4.5583-6.8375 2.0408-6.8375 4.5583-6.8375 4.5583 3.0613 4.5583 6.8375z"/>
     <path transform="rotate(-90)" d="m-227.23-44.395h31.559v4.7983h-31.559z"/>
     <path transform="matrix(1.4091 0 0 1.3939 256.94 -78.518)" d="m-38.539 193.53c0 3.7762-2.0408 6.8375-4.5583 6.8375s-4.5583-3.0613-4.5583-6.8375 2.0408-6.8375 4.5583-6.8375 4.5583 3.0613 4.5583 6.8375z"/>
     <path transform="matrix(.90909 0 0 .48485 235.19 86.229)" d="m-38.539 193.53c0 3.7762-2.0408 6.8375-4.5583 6.8375s-4.5583-3.0613-4.5583-6.8375 2.0408-6.8375 4.5583-6.8375 4.5583 3.0613 4.5583 6.8375z"/>
     <path transform="matrix(0 -1 1 0 238.69 1.6576)" d="m-227.23-44.395h31.559v4.7983h-31.559z"/>
    </g>
   </g>
   <path d="m196.96 182.64c141.3 256.84 353.35 198.84 353.35 198.84" fill="none" stroke="#000"/>
   <path d="m-40.376 182.64c128.69 202.39 455.8 200.13 455.8 200.13" fill="none" stroke="#000" stroke-width="1.008"/>
  </g>
  <path transform="translate(-22.524 23.417)" d="m87.176 88.284c84.318 317.26 84.318 315.84 84.318 315.84" fill="none" stroke="#000"/>
  <path transform="matrix(.21455 -.1001 .07986 .2227 219.31 338.6)" d="m-398.72 246.92c0 18.153-4.7988 32.87-10.718 32.87s-10.718-14.716-10.718-32.87 4.7988-32.87 10.718-32.87 10.718 14.716 10.718 32.87z" fill="none" stroke="#000" stroke-linecap="round" stroke-width="5"/>
  <path transform="translate(-23.738 17.953)" d="m187.62 430.8c0 0.92219-3.3981 1.6698-7.5899 1.6698s-7.5899-0.74758-7.5899-1.6698 3.3981-1.6698 7.5899-1.6698 7.5899 0.74759 7.5899 1.6698z" fill="#b3b3b3"/>
  <path transform="translate(-22.524 23.417)" d="m176.39 417.9 2.7324 6.6791" fill="none" stroke="#000"/>
  <path transform="matrix(-.5154 0 0 .63495 343.99 144.95)" d="m87.176 88.284c84.318 317.26 84.318 315.84 84.318 315.84" fill="none" stroke="#000"/>
  <path transform="matrix(-.11058 -.06356 -.04116 .1414 219.35 345.07)" d="m-398.72 246.92c0 18.153-4.7988 32.87-10.718 32.87s-10.718-14.716-10.718-32.87 4.7988-32.87 10.718-32.87 10.718 14.716 10.718 32.87z" fill="none" stroke="#000" stroke-linecap="round" stroke-width="5"/>
  <path transform="matrix(-.5154 0 0 .63495 344.61 141.48)" d="m187.62 430.8c0 0.92219-3.3981 1.6698-7.5899 1.6698s-7.5899-0.74758-7.5899-1.6698 3.3981-1.6698 7.5899-1.6698 7.5899 0.74759 7.5899 1.6698z" fill="#b3b3b3"/>
  <path transform="matrix(-.5154 0 0 .63495 343.99 144.95)" d="m176.39 417.9 2.7324 6.6791" fill="none" stroke="#000"/>
 </g>
</svg>
