<?xml version="1.0" encoding="UTF-8" standalone="no"?>
<!-- Created with Inkscape (http://www.inkscape.org/) -->

<svg
   xmlns:dc="http://purl.org/dc/elements/1.1/"
   xmlns:cc="http://creativecommons.org/ns#"
   xmlns:rdf="http://www.w3.org/1999/02/22-rdf-syntax-ns#"
   xmlns:svg="http://www.w3.org/2000/svg"
   xmlns="http://www.w3.org/2000/svg"
   xmlns:sodipodi="http://sodipodi.sourceforge.net/DTD/sodipodi-0.dtd"
   xmlns:inkscape="http://www.inkscape.org/namespaces/inkscape"
   width="84.470169mm"
   height="82.973686mm"
   viewBox="0 0 299.30375 294.00125"
   id="svg2"
   version="1.1"
   inkscape:version="0.91 r13725"
   sodipodi:docname="RTierra02.svg">
  <defs
     id="defs4">
    <clipPath
       id="clipPath7678"
       clipPathUnits="userSpaceOnUse">
      <path
         inkscape:connector-curvature="0"
         id="path7680"
         d="m 37.226,364.763 238.693,0 0,141.639 -238.693,0 0,-141.639 z" />
    </clipPath>
    <clipPath
       id="clipPath7686"
       clipPathUnits="userSpaceOnUse">
      <path
         inkscape:connector-curvature="0"
         id="path7688"
         d="M -4.7636589,362.46188 -5.815775,511.33754 320.75409,513.64543 321.80621,364.76977 -4.7636589,362.46188 Z" />
    </clipPath>
    <linearGradient
       id="linearGradient7690"
       spreadMethod="pad"
       gradientTransform="matrix(-0.8499908,120.2747,120.2747,0.8499908,158.3222,391.785)"
       gradientUnits="userSpaceOnUse"
       y2="0"
       x2="1"
       y1="0"
       x1="0">
      <stop
         id="stop7692"
         offset="0"
         style="stop-opacity:1;stop-color:#e6eef3" />
      <stop
         id="stop7694"
         offset="1"
         style="stop-opacity:1;stop-color:#00aeef" />
    </linearGradient>
    <clipPath
       id="clipPath7702"
       clipPathUnits="userSpaceOnUse">
      <path
         inkscape:connector-curvature="0"
         id="path7704"
         d="m 0,0 595.276,0 0,841.89 L 0,841.89 0,0 Z" />
    </clipPath>
    <clipPath
       id="clipPath7714"
       clipPathUnits="userSpaceOnUse">
      <path
         inkscape:connector-curvature="0"
         id="path7716"
         d="m 37.226,271.95 238.693,0 0,234.452 -238.693,0 0,-234.452 z" />
    </clipPath>
    <clipPath
       id="clipPath7768"
       clipPathUnits="userSpaceOnUse">
      <path
         inkscape:connector-curvature="0"
         id="path7770"
         d="m 0,0 595.276,0 0,841.89 L 0,841.89 0,0 Z" />
    </clipPath>
    <clipPath
       id="clipPath7878"
       clipPathUnits="userSpaceOnUse">
      <path
         inkscape:connector-curvature="0"
         id="path7880"
         d="m 37.226,271.95 238.693,0 0,234.452 -238.693,0 0,-234.452 z" />
    </clipPath>
    <clipPath
       id="clipPath7890"
       clipPathUnits="userSpaceOnUse">
      <path
         inkscape:connector-curvature="0"
         id="path7892"
         d="m 0,0 595.276,0 0,841.89 L 0,841.89 0,0 Z" />
    </clipPath>
    <clipPath
       id="clipPath7960"
       clipPathUnits="userSpaceOnUse">
      <path
         inkscape:connector-curvature="0"
         id="path7962"
         d="m 37.226,271.95 238.693,0 0,234.452 -238.693,0 0,-234.452 z" />
    </clipPath>
    <clipPath
       id="clipPath8024"
       clipPathUnits="userSpaceOnUse">
      <path
         inkscape:connector-curvature="0"
         id="path8026"
         d="m 0,0 595.276,0 0,841.89 L 0,841.89 0,0 Z" />
    </clipPath>
    <clipPath
       id="clipPath8060"
       clipPathUnits="userSpaceOnUse">
      <path
         inkscape:connector-curvature="0"
         id="path8062"
         d="m 37.226,271.95 238.693,0 0,234.452 -238.693,0 0,-234.452 z" />
    </clipPath>
    <clipPath
       id="clipPath8070"
       clipPathUnits="userSpaceOnUse">
      <path
         inkscape:connector-curvature="0"
         id="path8072"
         d="m 0,0 595.276,0 0,841.89 L 0,841.89 0,0 Z" />
    </clipPath>
    <clipPath
       id="clipPath8090"
       clipPathUnits="userSpaceOnUse">
      <path
         inkscape:connector-curvature="0"
         id="path8092"
         d="m 37.226,271.95 238.693,0 0,234.452 -238.693,0 0,-234.452 z" />
    </clipPath>
  </defs>
  <sodipodi:namedview
     id="base"
     pagecolor="#ffffff"
     bordercolor="#666666"
     borderopacity="1.0"
     inkscape:pageopacity="0.0"
     inkscape:pageshadow="2"
     inkscape:zoom="1.6455448"
     inkscape:cx="149.65187"
     inkscape:cy="149.66371"
     inkscape:document-units="px"
     inkscape:current-layer="layer1"
     showgrid="false"
     fit-margin-top="0"
     fit-margin-left="0"
     fit-margin-right="0"
     fit-margin-bottom="0"
     inkscape:window-width="1366"
     inkscape:window-height="719"
     inkscape:window-x="0"
     inkscape:window-y="1"
     inkscape:window-maximized="1" />
  <metadata
     id="metadata7">
    <rdf:RDF>
      <cc:Work
         rdf:about="">
        <dc:format>image/svg+xml</dc:format>
        <dc:type
           rdf:resource="http://purl.org/dc/dcmitype/StillImage" />
        <dc:title></dc:title>
      </cc:Work>
    </rdf:RDF>
  </metadata>
  <g
     inkscape:label="Capa 1"
     inkscape:groupmode="layer"
     id="layer1"
     transform="translate(-16.872144,-416.50085)">
    <g
       id="g3365"
       transform="matrix(1.25,0,0,-1.25,782.23821,1149.972)" />
    <g
       id="g3375"
       transform="matrix(1.25,0,0,-1.25,782.23821,1149.972)" />
    <g
       id="g7546"
       transform="matrix(1.25,0,0,-1.25,-29.190356,1049.9721)" />
    <g
       id="g11110">
      <path
         inkscape:connector-curvature="0"
         id="path7672"
         style="fill:#c8b69d;fill-opacity:1;fill-rule:nonzero;stroke:none"
         d="m 17.342144,710.0346 298.366246,0 0,-115.70625 -298.366246,0 0,115.70625 z" />
      <g
         transform="matrix(1.25,0,0,-1.25,-29.190356,1049.9721)"
         id="g7674">
        <g
           clip-path="url(#clipPath7678)"
           id="g7676">
          <g
             id="g7682">
            <g
               clip-path="url(#clipPath7686)"
               id="g7684">
              <path
                 inkscape:connector-curvature="0"
                 id="path7696"
                 style="fill:url(#linearGradient7690);stroke:none"
                 d="m 37.226,364.763 238.693,0 0,141.639 -238.693,0 0,-141.639 z" />
            </g>
          </g>
        </g>
      </g>
      <g
         transform="matrix(1.25,0,0,-1.25,-29.190356,1049.9721)"
         id="g7698">
        <g
           clip-path="url(#clipPath7702)"
           id="g7700">
          <g
             transform="translate(113.9495,365.7438)"
             id="g7706">
            <path
               inkscape:connector-curvature="0"
               id="path7708"
               style="fill:#ffffff;fill-opacity:1;fill-rule:nonzero;stroke:#000000;stroke-width:0.85000002;stroke-linecap:butt;stroke-linejoin:miter;stroke-miterlimit:4;stroke-dasharray:none;stroke-opacity:1"
               d="m 0,0 0,87.249 -33.18,32.769 -32.769,-32.769 0,-88.23" />
          </g>
        </g>
      </g>
      <g
         transform="matrix(1.25,0,0,-1.25,-29.190356,1049.9721)"
         id="g7710">
        <g
           clip-path="url(#clipPath7714)"
           id="g7712">
          <g
             transform="translate(122.4309,364.6862)"
             id="g7718">
            <path
               inkscape:connector-curvature="0"
               id="path7720"
               style="fill:none;stroke:#ed1d24;stroke-width:0.85000002;stroke-linecap:butt;stroke-linejoin:miter;stroke-miterlimit:4;stroke-dasharray:1.7, 1.7;stroke-dashoffset:0;stroke-opacity:1"
               d="m 0,0 c 0,-5.248 -5.001,-15.003 -17.349,-15.003 l -0.198,0 c -12.348,0 -17.349,9.755 -17.349,15.003" />
          </g>
          <g
             transform="translate(123.9744,364.6862)"
             id="g7722">
            <path
               inkscape:connector-curvature="0"
               id="path7724"
               style="fill:none;stroke:#ed1d24;stroke-width:0.85000002;stroke-linecap:butt;stroke-linejoin:miter;stroke-miterlimit:4;stroke-dasharray:1.7, 1.7;stroke-dashoffset:0;stroke-opacity:1"
               d="m 0,0 c 0,-7.101 -7.471,-17.473 -18.892,-17.473 l -0.199,0 c -11.421,0 -18.892,10.372 -18.892,17.473" />
          </g>
          <g
             transform="translate(125.5179,364.6862)"
             id="g7726">
            <path
               inkscape:connector-curvature="0"
               id="path7728"
               style="fill:none;stroke:#ed1d24;stroke-width:0.85000002;stroke-linecap:butt;stroke-linejoin:miter;stroke-miterlimit:4;stroke-dasharray:1.7, 1.7;stroke-dashoffset:0;stroke-opacity:1"
               d="m 0,0 c 0,-7.409 -7.162,-19.015 -20.436,-19.015 l -0.199,0 c -13.273,0 -20.434,11.606 -20.434,19.015" />
          </g>
          <g
             transform="translate(127.3698,364.6862)"
             id="g7730">
            <path
               inkscape:connector-curvature="0"
               id="path7732"
               style="fill:none;stroke:#ed1d24;stroke-width:0.85000002;stroke-linecap:butt;stroke-linejoin:miter;stroke-miterlimit:4;stroke-dasharray:1.7, 1.7;stroke-dashoffset:0;stroke-opacity:1"
               d="m 0,0 c 0,-7.718 -5.927,-22.103 -22.287,-22.103 l -0.2,0 c -16.36,0 -22.287,14.385 -22.287,22.103" />
          </g>
          <g
             transform="translate(129.8393,364.6862)"
             id="g7734">
            <path
               inkscape:connector-curvature="0"
               id="path7736"
               style="fill:none;stroke:#ed1d24;stroke-width:0.85000002;stroke-linecap:butt;stroke-linejoin:miter;stroke-miterlimit:4;stroke-dasharray:1.7, 1.7;stroke-dashoffset:0;stroke-opacity:1"
               d="m 0,0 c 0,-9.569 -7.161,-25.807 -24.756,-25.807 l -0.2,0 c -17.595,0 -24.756,16.238 -24.756,25.807" />
          </g>
          <path
             inkscape:connector-curvature="0"
             id="path7738"
             style="fill:#e5dbb8;fill-opacity:1;fill-rule:nonzero;stroke:none"
             d="m 68.4816,364.6165 0,25.294 c 0,3.847 3.118,6.964 6.963,6.964 3.846,0 6.964,-3.117 6.964,-6.964 l 0,-25.294 -13.927,0 z" />
          <g
             transform="translate(68.4816,364.6165)"
             id="g7740">
            <path
               inkscape:connector-curvature="0"
               id="path7742"
               style="fill:none;stroke:#000000;stroke-width:0.42500001;stroke-linecap:butt;stroke-linejoin:miter;stroke-miterlimit:4;stroke-dasharray:none;stroke-opacity:1"
               d="m 0,0 0,25.294 c 0,3.847 3.118,6.964 6.963,6.964 3.846,0 6.964,-3.117 6.964,-6.964 L 13.927,0 0,0 Z" />
          </g>
          <path
             inkscape:connector-curvature="0"
             id="path7744"
             style="fill:#e6e7e8;fill-opacity:1;fill-rule:nonzero;stroke:none"
             d="m 71.5919,377.2133 0,12.793 c 0,1.969 1.595,3.565 3.565,3.565 1.969,0 3.566,-1.596 3.566,-3.565 l 0,-12.793 -7.131,0 z" />
          <g
             transform="translate(71.5919,377.2133)"
             id="g7746">
            <path
               inkscape:connector-curvature="0"
               id="path7748"
               style="fill:none;stroke:#000000;stroke-width:0.42500001;stroke-linecap:butt;stroke-linejoin:miter;stroke-miterlimit:4;stroke-dasharray:none;stroke-opacity:1"
               d="m 0,0 0,12.793 c 0,1.969 1.595,3.565 3.565,3.565 1.969,0 3.566,-1.596 3.566,-3.565 L 7.131,0 0,0 Z" />
          </g>
          <path
             inkscape:connector-curvature="0"
             id="path7750"
             style="fill:#ffffff;fill-opacity:1;fill-rule:nonzero;stroke:none"
             d="m 177.545,397.709 -50.575,0 0,33.94 50.575,0 0,-33.94 z" />
          <g
             transform="translate(177.5452,397.7087)"
             id="g7752">
            <path
               inkscape:connector-curvature="0"
               id="path7754"
               style="fill:none;stroke:#000000;stroke-width:0.42500001;stroke-linecap:round;stroke-linejoin:round;stroke-miterlimit:4;stroke-dasharray:none;stroke-opacity:1"
               d="m 0,0 -50.575,0 0,33.94 L 0,33.94 0,0 Z" />
          </g>
          <g
             transform="translate(175.6046,399.3441)"
             id="g7756">
            <path
               inkscape:connector-curvature="0"
               id="path7758"
               style="fill:none;stroke:#000000;stroke-width:0.42500001;stroke-linecap:round;stroke-linejoin:round;stroke-miterlimit:4;stroke-dasharray:none;stroke-opacity:1"
               d="m 0,0 -46.743,0 0,22.695 L 0,22.695 0,0 Z" />
          </g>
          <g
             transform="translate(172.4452,424.0583)"
             id="g7760">
            <path
               inkscape:connector-curvature="0"
               id="path7762"
               style="fill:none;stroke:#000000;stroke-width:0.42500001;stroke-linecap:round;stroke-linejoin:round;stroke-miterlimit:4;stroke-dasharray:none;stroke-opacity:1"
               d="M 0,0 -41.119,0 -44.306,6.209 3.4,6.209 0,0 Z" />
          </g>
        </g>
      </g>
      <g
         transform="matrix(1.25,0,0,-1.25,-29.190356,1049.9721)"
         id="g7764">
        <g
           clip-path="url(#clipPath7768)"
           id="g7766">
          <text
             id="text7772"
             style="font-variant:normal;font-weight:bold;font-size:7.6500001px;font-family:'Helvetica Neue';-inkscape-font-specification:HelveticaNeue-Bold;writing-mode:lr-tb;fill:#000000;fill-opacity:1;fill-rule:nonzero;stroke:none"
             transform="matrix(0.8,0,0,-1,96.3702,368.4108)">
            <tspan
               id="tspan7774"
               sodipodi:role="line"
               y="0"
               x="0 4.9572001">E</tspan>
          </text>
          <text
             id="text7776"
             style="font-variant:normal;font-weight:bold;font-size:7.6500001px;font-family:'Helvetica Neue';-inkscape-font-specification:HelveticaNeue-Bold;writing-mode:lr-tb;fill:#000000;fill-opacity:1;fill-rule:nonzero;stroke:none"
             transform="matrix(0.8,0,0,-1,163.7392,368.4108)">
            <tspan
               id="tspan7778"
               sodipodi:role="line"
               y="0"
               x="0 4.9648499 7.0915499">S'</tspan>
          </text>
          <text
             id="text7780"
             style="font-variant:normal;font-weight:bold;font-size:7.6500001px;font-family:'Helvetica Neue';-inkscape-font-specification:HelveticaNeue-Bold;writing-mode:lr-tb;fill:#000000;fill-opacity:1;fill-rule:nonzero;stroke:none"
             transform="matrix(0.8,0,0,-1,182.1848,368.4108)">
            <tspan
               id="tspan7782"
               sodipodi:role="line"
               y="0"
               x="0 4.9648499">S</tspan>
          </text>
          <text
             id="text7784"
             style="font-variant:normal;font-weight:bold;font-size:7.6500001px;font-family:'Helvetica Neue';-inkscape-font-specification:HelveticaNeue-Bold;writing-mode:lr-tb;fill:#000000;fill-opacity:1;fill-rule:nonzero;stroke:none"
             transform="matrix(0.8,0,0,-1,207.032,368.4108)">
            <tspan
               id="tspan7786"
               sodipodi:role="line"
               y="0"
               x="0 4.9648499 7.0915499 9.2182503">S''</tspan>
          </text>
          <text
             id="text7788"
             style="font-variant:normal;font-weight:bold;font-size:7.6500001px;font-family:'Helvetica Neue';-inkscape-font-specification:HelveticaNeue-Bold;writing-mode:lr-tb;fill:#000000;fill-opacity:1;fill-rule:nonzero;stroke:none"
             transform="matrix(0.8,0,0,-1,164.3083,320.2541)">
            <tspan
               id="tspan7790"
               sodipodi:role="line"
               y="0"
               x="0 5.6686502">D</tspan>
          </text>
          <text
             id="text7792"
             style="font-variant:normal;font-weight:bold;font-size:7.6500001px;font-family:'Helvetica Neue';-inkscape-font-specification:HelveticaNeue-Bold;writing-mode:lr-tb;fill:#000000;fill-opacity:1;fill-rule:nonzero;stroke:none"
             transform="matrix(0.8,0,0,-1,93.7386,314.7002)">
            <tspan
               id="tspan7794"
               sodipodi:role="line"
               y="0"
               x="0 5.9517002 10.7712">OV</tspan>
          </text>
          <text
             id="text7796"
             style="font-variant:normal;font-weight:bold;font-size:7.6500001px;font-family:'Helvetica Neue';-inkscape-font-specification:HelveticaNeue-Bold;writing-mode:lr-tb;fill:#000000;fill-opacity:1;fill-rule:nonzero;stroke:none"
             transform="matrix(0.8,0,0,-1,96.11928,290.9316)">
            <tspan
               id="tspan7798"
               sodipodi:role="line"
               y="0"
               x="0 4.8195">V</tspan>
          </text>
          <text
             id="text7800"
             style="font-variant:normal;font-weight:normal;font-size:7.6500001px;font-family:'Helvetica Neue';-inkscape-font-specification:HelveticaNeue-Roman;writing-mode:lr-tb;fill:#000000;fill-opacity:1;fill-rule:nonzero;stroke:none"
             transform="matrix(0.8,0,0,-1,103.7509,280.4358)">
            <tspan
               id="tspan7802"
               sodipodi:role="line"
               y="0"
               x="0 4.1004">0</tspan>
          </text>
          <text
             id="text7804"
             style="font-variant:normal;font-weight:normal;font-size:7.6500001px;font-family:'Helvetica Neue';-inkscape-font-specification:HelveticaNeue-Roman;writing-mode:lr-tb;fill:#000000;fill-opacity:1;fill-rule:nonzero;stroke:none"
             transform="matrix(0.8,0,0,-1,165.924,280.4358)">
            <tspan
               id="tspan7806"
               sodipodi:role="line"
               y="0"
               x="0 4.1004 8.2007999 10.1745">52 %</tspan>
          </text>
          <text
             id="text7808"
             style="font-variant:normal;font-weight:normal;font-size:7.6500001px;font-family:'Helvetica Neue';-inkscape-font-specification:HelveticaNeue-Roman;writing-mode:lr-tb;fill:#000000;fill-opacity:1;fill-rule:nonzero;stroke:none"
             transform="matrix(0.8,0,0,-1,182.5949,280.4358)">
            <tspan
               id="tspan7810"
               sodipodi:role="line"
               y="0"
               x="0 4.1004 8.2007999 10.1745">62 %</tspan>
          </text>
          <text
             id="text7812"
             style="font-variant:normal;font-weight:normal;font-size:7.6500001px;font-family:'Helvetica Neue';-inkscape-font-specification:HelveticaNeue-Roman;writing-mode:lr-tb;fill:#000000;fill-opacity:1;fill-rule:nonzero;stroke:none"
             transform="matrix(0.8,0,0,-1,198.0295,280.4358)">
            <tspan
               id="tspan7814"
               sodipodi:role="line"
               y="0"
               x="0 4.1004 8.2007999 10.1745">72 %</tspan>
          </text>
          <text
             id="text7816"
             style="font-variant:normal;font-weight:normal;font-size:7.6500001px;font-family:'Helvetica Neue';-inkscape-font-specification:HelveticaNeue-Roman;writing-mode:lr-tb;fill:#000000;fill-opacity:1;fill-rule:nonzero;stroke:none"
             transform="matrix(0.8,0,0,-1,232.1975,280.4358)">
            <tspan
               id="tspan7818"
               sodipodi:role="line"
               y="0"
               x="0 4.1004 8.2007999 12.3012 14.2749">100 %</tspan>
          </text>
          <text
             id="text7820"
             style="font-variant:normal;font-weight:bold;font-size:7.6500001px;font-family:'Helvetica Neue';-inkscape-font-specification:HelveticaNeue-Bold;writing-mode:lr-tb;fill:#000000;fill-opacity:1;fill-rule:nonzero;stroke:none"
             transform="matrix(0.8,0,0,-1,182.4113,320.2541)">
            <tspan
               id="tspan7822"
               sodipodi:role="line"
               y="0"
               x="0 4.3910999">a</tspan>
          </text>
          <text
             id="text7824"
             style="font-variant:normal;font-weight:bold;font-size:7.6500001px;font-family:'Helvetica Neue';-inkscape-font-specification:HelveticaNeue-Bold;writing-mode:lr-tb;fill:#000000;fill-opacity:1;fill-rule:nonzero;stroke:none"
             transform="matrix(0.8,0,0,-1,205.6673,320.2541)">
            <tspan
               id="tspan7826"
               sodipodi:role="line"
               y="0"
               x="0 5.6686502">C</tspan>
          </text>
          <text
             id="text7828"
             style="font-variant:normal;font-weight:bold;font-size:7.6500001px;font-family:'Helvetica Neue';-inkscape-font-specification:HelveticaNeue-Bold;writing-mode:lr-tb;fill:#000000;fill-opacity:1;fill-rule:nonzero;stroke:none"
             transform="matrix(0.8,0,0,-1,245.4901,368.4108)">
            <tspan
               id="tspan7830"
               sodipodi:role="line"
               y="0"
               x="0 5.6686502">H</tspan>
          </text>
          <g
             transform="translate(103.2993,463.6432)"
             id="g7832">
            <path
               inkscape:connector-curvature="0"
               id="path7834"
               style="fill:#942923;fill-opacity:1;fill-rule:nonzero;stroke:#000000;stroke-width:0.85000002;stroke-linecap:butt;stroke-linejoin:miter;stroke-miterlimit:4;stroke-dasharray:none;stroke-opacity:1"
               d="m 0,0 0,17.204 -6.963,0 0,-10.145" />
          </g>
          <path
             inkscape:connector-curvature="0"
             id="path7836"
             style="fill:#e6e7e8;fill-opacity:1;fill-rule:nonzero;stroke:none"
             d="m 87.324,425.958 -11.059,0 0,16.794 11.059,0 0,-16.794 z" />
          <g
             transform="translate(87.3236,425.9584)"
             id="g7838">
            <path
               inkscape:connector-curvature="0"
               id="path7840"
               style="fill:none;stroke:#000000;stroke-width:0.42500001;stroke-linecap:butt;stroke-linejoin:miter;stroke-miterlimit:4;stroke-dasharray:none;stroke-opacity:1"
               d="m 0,0 -11.059,0 0,16.794 L 0,16.794 0,0 Z" />
          </g>
          <g
             transform="translate(81.5893,442.343)"
             id="g7842">
            <path
               inkscape:connector-curvature="0"
               id="path7844"
               style="fill:none;stroke:#000000;stroke-width:0.42500001;stroke-linecap:butt;stroke-linejoin:miter;stroke-miterlimit:4;stroke-dasharray:none;stroke-opacity:1"
               d="M 0,0 0,-15.975" />
          </g>
          <g
             transform="translate(76.2644,437.0175)"
             id="g7846">
            <path
               inkscape:connector-curvature="0"
               id="path7848"
               style="fill:none;stroke:#000000;stroke-width:0.42500001;stroke-linecap:butt;stroke-linejoin:miter;stroke-miterlimit:4;stroke-dasharray:none;stroke-opacity:1"
               d="M 0,0 10.65,0" />
          </g>
          <g
             transform="translate(76.2644,431.6926)"
             id="g7850">
            <path
               inkscape:connector-curvature="0"
               id="path7852"
               style="fill:none;stroke:#000000;stroke-width:0.42500001;stroke-linecap:butt;stroke-linejoin:miter;stroke-miterlimit:4;stroke-dasharray:none;stroke-opacity:1"
               d="M 0,0 10.65,0" />
          </g>
          <g
             transform="translate(75.1567,393.5713)"
             id="g7854">
            <path
               inkscape:connector-curvature="0"
               id="path7856"
               style="fill:none;stroke:#000000;stroke-width:0.42500001;stroke-linecap:butt;stroke-linejoin:miter;stroke-miterlimit:4;stroke-dasharray:none;stroke-opacity:1"
               d="M 0,0 0,-15.975" />
          </g>
          <g
             transform="translate(71.7542,388.2459)"
             id="g7858">
            <path
               inkscape:connector-curvature="0"
               id="path7860"
               style="fill:none;stroke:#000000;stroke-width:0.42500001;stroke-linecap:butt;stroke-linejoin:miter;stroke-miterlimit:4;stroke-dasharray:none;stroke-opacity:1"
               d="M 0,0 7.033,0" />
          </g>
          <g
             transform="translate(71.7542,388.6984)"
             id="g7862">
            <path
               inkscape:connector-curvature="0"
               id="path7864"
               style="fill:none;stroke:#000000;stroke-width:0.42500001;stroke-linecap:butt;stroke-linejoin:miter;stroke-miterlimit:4;stroke-dasharray:none;stroke-opacity:1"
               d="M 0,0 7.033,0" />
          </g>
          <g
             transform="translate(71.7542,384.401)"
             id="g7866">
            <path
               inkscape:connector-curvature="0"
               id="path7868"
               style="fill:none;stroke:#000000;stroke-width:0.42500001;stroke-linecap:butt;stroke-linejoin:miter;stroke-miterlimit:4;stroke-dasharray:none;stroke-opacity:1"
               d="M 0,0 7.033,0" />
          </g>
          <g
             transform="translate(71.7542,379.9904)"
             id="g7870">
            <path
               inkscape:connector-curvature="0"
               id="path7872"
               style="fill:none;stroke:#000000;stroke-width:0.42500001;stroke-linecap:butt;stroke-linejoin:miter;stroke-miterlimit:4;stroke-dasharray:none;stroke-opacity:1"
               d="M 0,0 7.033,0" />
          </g>
        </g>
      </g>
      <g
         transform="matrix(1.25,0,0,-1.25,-29.190356,1049.9721)"
         id="g7874">
        <g
           clip-path="url(#clipPath7878)"
           id="g7876">
          <g
             transform="translate(166.9202,426.6083)"
             id="g7882">
            <path
               inkscape:connector-curvature="0"
               id="path7884"
               style="fill:none;stroke:#000000;stroke-width:0.85000002;stroke-linecap:butt;stroke-linejoin:miter;stroke-miterlimit:4;stroke-dasharray:none;stroke-opacity:1"
               d="m 0,0 0,17.85 73.313,0 0,-79.05 c 0,-24.65 -7.863,-48.875 -50.363,-48.875 -32.866,0 -54.477,-5.602 -67.15,-18.275 -3.25,-3.25 -8.075,-9.35 -17.425,-9.35 l 0,60.35" />
          </g>
        </g>
      </g>
      <g
         transform="matrix(1.25,0,0,-1.25,-29.190356,1049.9721)"
         id="g7886">
        <g
           clip-path="url(#clipPath7890)"
           id="g7888">
          <g
             transform="translate(105.7202,316.5334)"
             id="g7894">
            <path
               inkscape:connector-curvature="0"
               id="path7896"
               style="fill:none;stroke:#000000;stroke-width:0.85000002;stroke-linecap:butt;stroke-linejoin:miter;stroke-miterlimit:4;stroke-dasharray:none;stroke-opacity:1"
               d="M 0,0 84.15,0" />
          </g>
          <g
             transform="translate(240.2327,289.3333)"
             id="g7898">
            <path
               inkscape:connector-curvature="0"
               id="path7900"
               style="fill:none;stroke:#000000;stroke-width:0.85000002;stroke-linecap:butt;stroke-linejoin:miter;stroke-miterlimit:4;stroke-dasharray:none;stroke-opacity:1"
               d="M 0,0 0,76.075" />
          </g>
          <g
             transform="translate(81.9202,288.4833)"
             id="g7902">
            <path
               inkscape:connector-curvature="0"
               id="path7904"
               style="fill:none;stroke:#000000;stroke-width:0.85000002;stroke-linecap:butt;stroke-linejoin:miter;stroke-miterlimit:4;stroke-dasharray:none;stroke-opacity:1"
               d="M 0,0 186.15,0" />
          </g>
          <g
             transform="translate(104.8702,406.6333)"
             id="g7906">
            <path
               inkscape:connector-curvature="0"
               id="path7908"
               style="fill:none;stroke:#000000;stroke-width:0.85000002;stroke-linecap:butt;stroke-linejoin:miter;stroke-miterlimit:4;stroke-dasharray:none;stroke-opacity:1"
               d="M 0,0 0,-13.6" />
          </g>
          <g
             transform="translate(100.1952,391.3333)"
             id="g7910">
            <path
               inkscape:connector-curvature="0"
               id="path7912"
               style="fill:none;stroke:#000000;stroke-width:0.85000002;stroke-linecap:butt;stroke-linejoin:miter;stroke-miterlimit:4;stroke-dasharray:none;stroke-opacity:1"
               d="M 0,0 4.675,-4.675" />
          </g>
          <path
             inkscape:connector-curvature="0"
             id="path7914"
             style="fill:#fff200;fill-opacity:1;fill-rule:nonzero;stroke:none"
             d="m 110.3595,360.3806 -8.5,0 0.461,1.203 8.5,0 -0.461,-1.203 z" />
          <path
             inkscape:connector-curvature="0"
             id="path7916"
             style="fill:#00a651;fill-opacity:1;fill-rule:nonzero;stroke:none"
             d="m 109.8988,359.1779 -8.5,0 0.461,1.203 8.5,0 -0.461,-1.203 z" />
          <path
             inkscape:connector-curvature="0"
             id="path7918"
             style="fill:#fff200;fill-opacity:1;fill-rule:nonzero;stroke:none"
             d="m 109.438,357.975 -8.5,0 0.461,1.203 8.5,0 -0.461,-1.203 z" />
          <path
             inkscape:connector-curvature="0"
             id="path7920"
             style="fill:#00a651;fill-opacity:1;fill-rule:nonzero;stroke:none"
             d="m 108.9774,356.7723 -8.5,0 0.461,1.203 8.5,0 -0.461,-1.203 z" />
          <path
             inkscape:connector-curvature="0"
             id="path7922"
             style="fill:#fff200;fill-opacity:1;fill-rule:nonzero;stroke:none"
             d="m 108.5166,355.5695 -8.5,0 0.461,1.203 8.5,0 -0.461,-1.203 z" />
          <path
             inkscape:connector-curvature="0"
             id="path7924"
             style="fill:#00a651;fill-opacity:1;fill-rule:nonzero;stroke:none"
             d="m 108.056,354.3667 -8.5,0 0.461,1.203 8.5,0 -0.461,-1.203 z" />
          <path
             inkscape:connector-curvature="0"
             id="path7926"
             style="fill:#fff200;fill-opacity:1;fill-rule:nonzero;stroke:none"
             d="m 107.5953,353.1639 -8.5,0 0.461,1.203 8.5,0 -0.461,-1.203 z" />
          <g
             transform="translate(137.1702,427.0334)"
             id="g7928">
            <path
               inkscape:connector-curvature="0"
               id="path7930"
               style="fill:none;stroke:#00a651;stroke-width:0.85000002;stroke-linecap:butt;stroke-linejoin:miter;stroke-miterlimit:4;stroke-dasharray:none;stroke-opacity:1"
               d="m 0,0 0,8.5 -14.025,0 0,-53.764 -18.275,0 0,-20.186" />
          </g>
          <g
             transform="translate(137.1702,427.0334)"
             id="g7932">
            <path
               inkscape:connector-curvature="0"
               id="path7934"
               style="fill:none;stroke:#fff200;stroke-width:0.85000002;stroke-linecap:butt;stroke-linejoin:miter;stroke-miterlimit:4;stroke-dasharray:1.7, 1.7;stroke-dashoffset:0;stroke-opacity:1"
               d="m 0,0 0,8.5 -14.025,0 0,-53.764 -18.275,0 0,-20.186" />
          </g>
          <g
             transform="translate(160.1202,426.6083)"
             id="g7936">
            <path
               inkscape:connector-curvature="0"
               id="path7938"
               style="fill:none;stroke:#0072bc;stroke-width:0.85000002;stroke-linecap:butt;stroke-linejoin:miter;stroke-miterlimit:4;stroke-dasharray:none;stroke-opacity:1"
               d="m 0,0 0,9.35 28.9,0 0,-147.475" />
          </g>
          <g
             transform="translate(172.8702,389.2083)"
             id="g7940">
            <path
               inkscape:connector-curvature="0"
               id="path7942"
               style="fill:none;stroke:#0072bc;stroke-width:0.85000002;stroke-linecap:butt;stroke-linejoin:miter;stroke-miterlimit:4;stroke-dasharray:none;stroke-opacity:1"
               d="M 0,0 0,-101.15" />
          </g>
          <g
             transform="translate(172.866,388.9643)"
             id="g7944">
            <path
               inkscape:connector-curvature="0"
               id="path7946"
               style="fill:none;stroke:#0072bc;stroke-width:0.85000002;stroke-linecap:butt;stroke-linejoin:miter;stroke-miterlimit:4;stroke-dasharray:1.7, 1.7;stroke-dashoffset:0;stroke-opacity:1"
               d="m 0,0 30.754,0 0,-100.056" />
          </g>
          <g
             transform="translate(104.8702,386.0342)"
             id="g7948">
            <path
               inkscape:connector-curvature="0"
               id="path7950"
               style="fill:none;stroke:#00a651;stroke-width:0.85000002;stroke-linecap:butt;stroke-linejoin:miter;stroke-miterlimit:4;stroke-dasharray:none;stroke-opacity:1"
               d="M 0,0 0,-4.265" />
          </g>
          <g
             transform="translate(104.8702,386.0342)"
             id="g7952">
            <path
               inkscape:connector-curvature="0"
               id="path7954"
               style="fill:none;stroke:#fff200;stroke-width:0.85000002;stroke-linecap:butt;stroke-linejoin:miter;stroke-miterlimit:4;stroke-dasharray:1.7, 1.7;stroke-dashoffset:0;stroke-opacity:1"
               d="M 0,0 0,-4.265" />
          </g>
        </g>
      </g>
      <g
         transform="matrix(1.25,0,0,-1.25,-29.190356,1049.9721)"
         id="g7956">
        <g
           clip-path="url(#clipPath7960)"
           id="g7958">
          <path
             inkscape:connector-curvature="0"
             id="path7964"
             style="fill:#00a651;fill-opacity:1;fill-rule:nonzero;stroke:none"
             d="m 106.5108,381.7688 c 0,-0.906 -0.734,-1.641 -1.641,-1.641 -0.906,0 -1.64,0.735 -1.64,1.641 0,0.906 0.734,1.64 1.64,1.64 0.907,0 1.641,-0.734 1.641,-1.64" />
          <path
             inkscape:connector-curvature="0"
             id="path7966"
             style="fill:#00a651;fill-opacity:1;fill-rule:nonzero;stroke:none"
             d="m 138.8108,427.0334 c 0,-0.906 -0.734,-1.641 -1.641,-1.641 -0.906,0 -1.64,0.735 -1.64,1.641 0,0.906 0.734,1.64 1.64,1.64 0.907,0 1.641,-0.734 1.641,-1.64" />
          <path
             inkscape:connector-curvature="0"
             id="path7968"
             style="fill:#0072bc;fill-opacity:1;fill-rule:nonzero;stroke:none"
             d="m 161.7608,427.0334 c 0,-0.906 -0.734,-1.641 -1.641,-1.641 -0.906,0 -1.64,0.735 -1.64,1.641 0,0.906 0.734,1.64 1.64,1.64 0.907,0 1.641,-0.734 1.641,-1.64" />
          <path
             inkscape:connector-curvature="0"
             id="path7970"
             style="fill:#0072bc;fill-opacity:1;fill-rule:nonzero;stroke:none"
             d="m 174.5067,370.7192 c 0,-0.906 -0.734,-1.641 -1.641,-1.641 -0.906,0 -1.64,0.735 -1.64,1.641 0,0.906 0.734,1.641 1.64,1.641 0.907,0 1.641,-0.735 1.641,-1.641" />
          <path
             inkscape:connector-curvature="0"
             id="path7972"
             style="fill:#00a651;fill-opacity:1;fill-rule:nonzero;stroke:none"
             d="m 106.4104,370.7192 c 0,-0.906 -0.734,-1.641 -1.641,-1.641 -0.906,0 -1.64,0.735 -1.64,1.641 0,0.906 0.734,1.641 1.64,1.641 0.907,0 1.641,-0.735 1.641,-1.641" />
          <path
             inkscape:connector-curvature="0"
             id="path7974"
             style="fill:#000000;fill-opacity:1;fill-rule:nonzero;stroke:none"
             d="m 106.4104,386.6584 c 0,-0.906 -0.734,-1.641 -1.641,-1.641 -0.906,0 -1.64,0.735 -1.64,1.641 0,0.906 0.734,1.64 1.64,1.64 0.907,0 1.641,-0.734 1.641,-1.64" />
          <path
             inkscape:connector-curvature="0"
             id="path7976"
             style="fill:#000000;fill-opacity:1;fill-rule:nonzero;stroke:none"
             d="m 106.4104,393.0334 c 0,-0.906 -0.734,-1.641 -1.641,-1.641 -0.906,0 -1.64,0.735 -1.64,1.641 0,0.906 0.734,1.64 1.64,1.64 0.907,0 1.641,-0.734 1.641,-1.64" />
          <path
             inkscape:connector-curvature="0"
             id="path7978"
             style="fill:#0072bc;fill-opacity:1;fill-rule:nonzero;stroke:none"
             d="m 190.6421,370.7192 c 0,-0.906 -0.735,-1.641 -1.641,-1.641 -0.906,0 -1.641,0.735 -1.641,1.641 0,0.906 0.735,1.641 1.641,1.641 0.906,0 1.641,-0.735 1.641,-1.641" />
          <path
             inkscape:connector-curvature="0"
             id="path7980"
             style="fill:#0072bc;fill-opacity:1;fill-rule:nonzero;stroke:none"
             d="m 205.4093,370.7192 c 0,-0.906 -0.735,-1.641 -1.641,-1.641 -0.906,0 -1.641,0.735 -1.641,1.641 0,0.906 0.735,1.641 1.641,1.641 0.906,0 1.641,-0.735 1.641,-1.641" />
          <path
             inkscape:connector-curvature="0"
             id="path7982"
             style="fill:#000000;fill-opacity:1;fill-rule:nonzero;stroke:none"
             d="m 241.9318,370.7192 c 0,-0.906 -0.735,-1.641 -1.641,-1.641 -0.906,0 -1.641,0.735 -1.641,1.641 0,0.906 0.735,1.641 1.641,1.641 0.906,0 1.641,-0.735 1.641,-1.641" />
          <path
             inkscape:connector-curvature="0"
             id="path7984"
             style="fill:#000000;fill-opacity:1;fill-rule:nonzero;stroke:none"
             d="m 168.5608,427.0334 c 0,-0.906 -0.734,-1.641 -1.641,-1.641 -0.906,0 -1.64,0.735 -1.64,1.641 0,0.906 0.734,1.64 1.64,1.64 0.907,0 1.641,-0.734 1.641,-1.64" />
          <g
             transform="translate(203.6196,370.7192)"
             id="g7986">
            <path
               inkscape:connector-curvature="0"
               id="path7988"
               style="fill:none;stroke:#0072bc;stroke-width:0.85000002;stroke-linecap:butt;stroke-linejoin:miter;stroke-miterlimit:4;stroke-dasharray:none;stroke-opacity:1"
               d="M 0,0 0,-13.674" />
          </g>
          <g
             transform="translate(244.6088,364.7029)"
             id="g7990">
            <path
               inkscape:connector-curvature="0"
               id="path7992"
               style="fill:none;stroke:#ed1d24;stroke-width:0.85000002;stroke-linecap:butt;stroke-linejoin:miter;stroke-miterlimit:4;stroke-dasharray:1.7, 1.7;stroke-dashoffset:0;stroke-opacity:1"
               d="m 0,0 c 0,-3.282 -0.821,-6.837 -4.376,-6.837 -3.555,0 -4.376,3.555 -4.376,6.837" />
          </g>
          <g
             transform="translate(246.7961,364.7029)"
             id="g7994">
            <path
               inkscape:connector-curvature="0"
               id="path7996"
               style="fill:none;stroke:#ed1d24;stroke-width:0.85000002;stroke-linecap:butt;stroke-linejoin:miter;stroke-miterlimit:4;stroke-dasharray:1.7, 1.7;stroke-dashoffset:0;stroke-opacity:1"
               d="m 0,0 c 0,-4.375 -0.273,-10.118 -6.564,-10.118 -6.29,0 -6.563,5.743 -6.563,10.118" />
          </g>
          <g
             transform="translate(248.9833,364.7029)"
             id="g7998">
            <path
               inkscape:connector-curvature="0"
               id="path8000"
               style="fill:none;stroke:#ed1d24;stroke-width:0.85000002;stroke-linecap:butt;stroke-linejoin:miter;stroke-miterlimit:4;stroke-dasharray:1.7, 1.7;stroke-dashoffset:0;stroke-opacity:1"
               d="m 0,0 c 0,-11.212 -3.555,-13.674 -8.751,-13.674 -5.196,0 -8.75,2.462 -8.75,13.674" />
          </g>
          <g
             transform="translate(252.2655,364.4289)"
             id="g8002">
            <path
               inkscape:connector-curvature="0"
               id="path8004"
               style="fill:none;stroke:#ed1d24;stroke-width:0.85000002;stroke-linecap:butt;stroke-linejoin:miter;stroke-miterlimit:4;stroke-dasharray:1.7, 1.7;stroke-dashoffset:0;stroke-opacity:1"
               d="m 0,0 c 0,-11.486 -3.555,-18.049 -12.033,-18.049 -8.478,0 -12.033,6.563 -12.033,18.049" />
          </g>
          <g
             transform="translate(257.4617,364.1558)"
             id="g8006">
            <path
               inkscape:connector-curvature="0"
               id="path8008"
               style="fill:none;stroke:#ed1d24;stroke-width:0.85000002;stroke-linecap:butt;stroke-linejoin:miter;stroke-miterlimit:4;stroke-dasharray:1.7, 1.7;stroke-dashoffset:0;stroke-opacity:1"
               d="m 0,0 c 0,-11.212 -3.556,-23.52 -17.23,-23.52 -13.673,0 -17.228,12.308 -17.228,23.52" />
          </g>
          <g
             transform="translate(260.196,364.7029)"
             id="g8010">
            <path
               inkscape:connector-curvature="0"
               id="path8012"
               style="fill:none;stroke:#ed1d24;stroke-width:0.85000002;stroke-linecap:butt;stroke-linejoin:miter;stroke-miterlimit:4;stroke-dasharray:1.7, 1.7;stroke-dashoffset:0;stroke-opacity:1"
               d="m 0,0 c 0,-20.238 -4.922,-32.817 -19.963,-32.817 -15.042,0 -19.964,12.579 -19.964,32.817" />
          </g>
          <g
             transform="translate(220.178,364.9767)"
             id="g8014">
            <path
               inkscape:connector-curvature="0"
               id="path8016"
               style="fill:none;stroke:#ed1d24;stroke-width:0.85000002;stroke-linecap:butt;stroke-linejoin:miter;stroke-miterlimit:4;stroke-dasharray:1.7, 1.7;stroke-dashoffset:0;stroke-opacity:1"
               d="M 0,0 39.928,0" />
          </g>
          <path
             inkscape:connector-curvature="0"
             id="path8018"
             style="fill:#000000;fill-opacity:1;fill-rule:nonzero;stroke:none"
             d="m 105.2952,351.1842 1.926,-3.851 -3.852,0 1.926,3.851 z" />
        </g>
      </g>
      <g
         transform="matrix(1.25,0,0,-1.25,-29.190356,1049.9721)"
         id="g8020">
        <g
           clip-path="url(#clipPath8024)"
           id="g8022">
          <text
             id="text8028"
             style="font-variant:normal;font-weight:normal;font-size:6.80000019px;font-family:'Helvetica Neue';-inkscape-font-specification:HelveticaNeue-Roman;writing-mode:lr-tb;fill:#000000;fill-opacity:1;fill-rule:nonzero;stroke:none"
             transform="matrix(1,0,0,-1,47.8907,337.4468)">
            <tspan
               id="tspan8030"
               sodipodi:role="line"
               y="0"
               x="0 4.4064002 8.3095999 10.4516 14.1032 17.884001 21.535601 23.0452 26.6968 28.2064">Potencial</tspan>
          </text>
          <text
             id="text8032"
             style="font-variant:normal;font-weight:normal;font-size:6.80000019px;font-family:'Helvetica Neue';-inkscape-font-specification:HelveticaNeue-Roman;writing-mode:lr-tb;fill:#000000;fill-opacity:1;fill-rule:nonzero;stroke:none"
             transform="matrix(1,0,0,-1,47.8907,329.1644)">
            <tspan
               id="tspan8034"
               sodipodi:role="line"
               y="0"
               x="0 2.142 5.7936001 9.1935997 13.226 16.8776 20.5292 22.6712 26.5744 28.4648 32.116402 35.897202">respecto a S</tspan>
          </text>
          <text
             id="text8036"
             style="font-variant:normal;font-weight:normal;font-size:6.80000019px;font-family:'Helvetica Neue';-inkscape-font-specification:HelveticaNeue-Roman;writing-mode:lr-tb;fill:#000000;fill-opacity:1;fill-rule:nonzero;stroke:none"
             transform="matrix(1,0,0,-1,73.4383,410.5196)">
            <tspan
               id="tspan8038"
               sodipodi:role="line"
               y="0"
               x="0 4.4064002 8.0579996 11.8388 13.9808 17.632401 19.5228 23.555201 27.2068">Pente de</tspan>
          </text>
          <text
             id="text8040"
             style="font-variant:normal;font-weight:normal;font-size:6.80000019px;font-family:'Helvetica Neue';-inkscape-font-specification:HelveticaNeue-Roman;writing-mode:lr-tb;fill:#000000;fill-opacity:1;fill-rule:nonzero;stroke:none"
             transform="matrix(1,0,0,-1,58.5735,402.2372)">
            <tspan
               id="tspan8042"
               sodipodi:role="line"
               y="0"
               x="0 3.6515999 7.5548 13.3552 17.3876 19.5296 23.4328 27.4652 31.1168 34.768398 36.278 40.181198">comprobación</tspan>
          </text>
          <path
             inkscape:connector-curvature="0"
             id="path8044"
             style="fill:#fffde9;fill-opacity:1;fill-rule:nonzero;stroke:none"
             d="m 240.151,457.209 -106.969,0 0,28.899 106.969,0 0,-28.899 z" />
          <g
             transform="translate(240.1511,457.2087)"
             id="g8046">
            <path
               inkscape:connector-curvature="0"
               id="path8048"
               style="fill:none;stroke:#ed1d24;stroke-width:0.85000002;stroke-linecap:butt;stroke-linejoin:miter;stroke-miterlimit:4;stroke-dasharray:none;stroke-opacity:1"
               d="m 0,0 -106.969,0 0,28.899 L 0,28.899 0,0 Z" />
          </g>
          <path
             inkscape:connector-curvature="0"
             id="path8050"
             style="fill:#ffffff;fill-opacity:1;fill-rule:nonzero;stroke:none"
             d="m 143.5132,483.3617 7.715,-15.431 -15.43,0 7.715,15.431 z" />
          <g
             transform="translate(143.5132,483.3617)"
             id="g8052">
            <path
               inkscape:connector-curvature="0"
               id="path8054"
               style="fill:none;stroke:#ed1d24;stroke-width:0.85000002;stroke-linecap:round;stroke-linejoin:round;stroke-miterlimit:4;stroke-dasharray:none;stroke-opacity:1"
               d="m 0,0 7.715,-15.431 -15.43,0 L 0,0 Z" />
          </g>
        </g>
      </g>
      <g
         transform="matrix(1.25,0,0,-1.25,-29.190356,1049.9721)"
         id="g8056">
        <g
           clip-path="url(#clipPath8060)"
           id="g8058">
          <path
             inkscape:connector-curvature="0"
             id="path8064"
             style="fill:#000000;fill-opacity:1;fill-rule:nonzero;stroke:none"
             d="m 144.9081,476.1475 c 0,-0.175 -0.036,-0.362 -0.071,-0.549 l -0.548,-2.735 c -0.071,-0.338 -0.319,-0.432 -0.778,-0.432 -0.46,0 -0.708,0.094 -0.778,0.432 l -0.548,2.735 c -0.035,0.187 -0.071,0.374 -0.071,0.549 l 0,1.356 c 0,0.596 0.513,0.899 1.397,0.899 0.884,0 1.397,-0.303 1.397,-0.899 l 0,-1.356 z m -1.397,-4.475 c 0.795,0 1.45,-0.432 1.45,-0.958 0,-0.526 -0.655,-0.959 -1.45,-0.959 -0.796,0 -1.45,0.433 -1.45,0.959 0,0.526 0.654,0.958 1.45,0.958" />
        </g>
      </g>
      <g
         transform="matrix(1.25,0,0,-1.25,-29.190356,1049.9721)"
         id="g8066">
        <g
           clip-path="url(#clipPath8070)"
           id="g8068">
          <text
             id="text8074"
             style="font-variant:normal;font-weight:bold;font-size:6.80000019px;font-family:'Helvetica Neue';-inkscape-font-specification:HelveticaNeue-Bold;writing-mode:lr-tb;fill:#ed1d24;fill-opacity:1;fill-rule:nonzero;stroke:none"
             transform="matrix(1,0,0,-1,157.5274,477.4785)">
            <tspan
               id="tspan8076"
               sodipodi:role="line"
               y="0"
               x="0 5.0387998 8.9420004 12.5936 16.496799 20.6516 24.684 28.5872 32.490398 34.883999 38.787201 41.4324 43.3228 47.226002 48.9804 50.8708 55.0256 59.057999 62.961201 66.993599 69.387199 73.290398">Desconectar el puente</tspan>
          </text>
          <text
             id="text8078"
             style="font-variant:normal;font-weight:bold;font-size:6.80000019px;font-family:'Helvetica Neue';-inkscape-font-specification:HelveticaNeue-Bold;writing-mode:lr-tb;fill:#ed1d24;fill-opacity:1;fill-rule:nonzero;stroke:none"
             transform="matrix(1,0,0,-1,155.8342,469.1961)">
            <tspan
               id="tspan8080"
               sodipodi:role="line"
               y="0"
               x="0 4.1547999 8.0579996 9.9483995 13.8516 18.006399 24.1672 28.322001 30.844801 34.999599 39.1544 43.057598 46.9608 48.715199 52.869999 56.902401 58.792801 62.695999 66.728401 69.122002 73.0252 76.676804">de comprobación antes</tspan>
          </text>
          <text
             id="text8082"
             style="font-variant:normal;font-weight:bold;font-size:6.80000019px;font-family:'Helvetica Neue';-inkscape-font-specification:HelveticaNeue-Bold;writing-mode:lr-tb;fill:#ed1d24;fill-opacity:1;fill-rule:nonzero;stroke:none"
             transform="matrix(1,0,0,-1,161.451,460.9137)">
            <tspan
               id="tspan8084"
               sodipodi:role="line"
               y="0"
               x="0 4.1547999 8.0579996 9.9483995 12.4712 16.374399 20.277599 22.032 23.7864 27.315599 31.2188 33.863998 35.754398 37.508801 41.411999 43.302399 49.4632 53.366402 57.521198 59.2756 63.430401">de realizar la medida</tspan>
          </text>
        </g>
      </g>
      <g
         transform="matrix(1.25,0,0,-1.25,-29.190356,1049.9721)"
         id="g8086">
        <g
           clip-path="url(#clipPath8090)"
           id="g8088">
          <g
             transform="translate(27.0952,364.5153)"
             id="g8094">
            <path
               inkscape:connector-curvature="0"
               id="path8096"
               style="fill:none;stroke:#000000;stroke-width:0.85000002;stroke-linecap:butt;stroke-linejoin:miter;stroke-miterlimit:4;stroke-dasharray:none;stroke-opacity:1"
               d="M 0,0 256.275,0" />
          </g>
        </g>
      </g>
      <g
         transform="matrix(1.25,0,0,-1.25,23.642269,490.77885)"
         id="g8106">
        <path
           inkscape:connector-curvature="0"
           id="path8108"
           style="fill:none;stroke:#000000;stroke-width:0.85000002;stroke-linecap:butt;stroke-linejoin:miter;stroke-miterlimit:4;stroke-dasharray:none;stroke-opacity:1"
           d="M 0,0 38.504,38.408 77.418,0" />
      </g>
      <path
         inkscape:connector-curvature="0"
         id="path8110"
         style="fill:none;stroke:#000000;stroke-width:0.9375;stroke-linecap:butt;stroke-linejoin:miter;stroke-miterlimit:4;stroke-dasharray:none;stroke-opacity:1"
         d="m 17.340894,710.03335 298.366246,0 0,-293.06375 -298.366246,0 0,293.06375 z" />
    </g>
  </g>
</svg>
